<?xml version="1.0"?>
<svg xmlns="http://www.w3.org/2000/svg" xmlns:xlink="http://www.w3.org/1999/xlink" version="1.1" id="Capa_1" x="0px" y="0px" viewBox="0 0 60 60" style="enable-background:new 0 0 60 60;" xml:space="preserve" width="512px" height="512px" class=""><g><path d="M0,28.5c0,14.888,13.458,27,30,27c4.263,0,8.379-0.79,12.243-2.349c6.806,3.928,16.213,5.282,16.618,5.339  c0.047,0.007,0.093,0.01,0.139,0.01c0.375,0,0.725-0.211,0.895-0.554c0.192-0.385,0.116-0.85-0.188-1.153  c-2.3-2.3-3.884-7.152-4.475-13.689C58.354,38.745,60,33.704,60,28.5c0-14.888-13.458-27-30-27S0,13.612,0,28.5z M40,28.5  c0-2.206,1.794-4,4-4s4,1.794,4,4s-1.794,4-4,4S40,30.706,40,28.5z M26,28.5c0-2.206,1.794-4,4-4s4,1.794,4,4s-1.794,4-4,4  S26,30.706,26,28.5z M12,28.5c0-2.206,1.794-4,4-4s4,1.794,4,4s-1.794,4-4,4S12,30.706,12,28.5z" data-original="#000000" class="active-path" data-old_color="#ffffff" fill="#ffffff"/></g> </svg>
