<?xml version="1.0"?>
<svg xmlns="http://www.w3.org/2000/svg" xmlns:xlink="http://www.w3.org/1999/xlink" version="1.1" id="Capa_1" x="0px" y="0px" viewBox="0 0 512 512" style="enable-background:new 0 0 512 512;" xml:space="preserve" width="512px" height="512px" class=""><g><g>
	<g>
		<path d="M256,0C160.917,0,0,17.984,0,85.333c0,13.632,6.827,25.152,18.133,35.008L192,348.565v142.101    c0,8.085,4.565,15.467,11.797,19.093c3.008,1.493,6.293,2.24,9.536,2.24c4.523,0,9.045-1.429,12.8-4.267l85.333-64    c5.376-4.032,8.533-10.368,8.533-17.067v-78.101l173.867-228.224C505.173,110.485,512,98.965,512,85.333    C512,17.984,351.083,0,256,0z M288.107,320h-64.213L97.792,154.475c10.731,2.496,21.824,4.693,33.216,6.549    c0.704,0.128,1.365,0.256,2.069,0.384c9.941,1.579,20.011,2.859,30.08,3.989c4.224,0.491,8.384,0.981,12.693,1.408    c9.813,0.939,19.477,1.621,28.992,2.219c3.819,0.213,7.573,0.469,11.456,0.661c13.995,0.661,27.413,0.981,39.701,0.981    s25.707-0.32,39.701-0.981c3.883-0.192,7.637-0.448,11.456-0.661c9.515-0.597,19.179-1.28,28.992-2.219    c4.309-0.427,8.469-0.917,12.693-1.408c10.069-1.131,20.139-2.411,30.08-3.989c0.704-0.128,1.365-0.256,2.069-0.384    c11.392-1.856,22.507-4.053,33.216-6.549L288.107,320z" data-original="#000000" class="active-path" data-old_color="#ffffff" fill="#ffffff"/>
	</g>
</g></g> </svg>
